<mxfile host="app.diagrams.net" modified="2024-01-18T23:49:46.792Z" agent="Mozilla/5.0 (Windows NT 10.0; Win64; x64) AppleWebKit/537.36 (KHTML, like Gecko) Chrome/120.0.0.0 Safari/537.36 Edg/120.0.0.0" version="22.1.20" etag="s8INu_g2mmJUn7ctPWYe" type="github">
  <diagram name="Page-1" id="NLThMh-YfLAV2sJp77-1">
    <mxGraphModel>
      <root>
        <mxCell id="0" />
        <mxCell id="1" parent="0" />
      </root>
    </mxGraphModel>
  </diagram>
</mxfile>
